<svg xmlns="http://www.w3.org/2000/svg" viewBox="0 0 28 21.636"><defs><style>.a{fill-rule:evenodd;}</style></defs><g transform="translate(0 -8.409)"><g transform="translate(14 16.045)"><path d="M29,22a7,7,0,1,0,7,7A7,7,0,0,0,29,22Zm0,12.727A5.727,5.727,0,1,1,34.727,29,5.727,5.727,0,0,1,29,34.727Z" transform="translate(-22 -22)"/></g><g transform="translate(17.818 19.864)"><path d="M33.727,30.545H31.818V28.636a.636.636,0,1,0-1.273,0v1.909H28.636a.636.636,0,1,0,0,1.273h1.909v1.909a.636.636,0,1,0,1.273,0V31.818h1.909a.636.636,0,0,0,0-1.273Z" transform="translate(-28 -28)"/></g><g transform="translate(0 8.409)"><path class="a" d="M15.273,14.773H.636a.636.636,0,0,0,0,1.273H15.273a.636.636,0,0,0,0-1.273Zm3.182-6.364H.636a.636.636,0,1,0,0,1.273H18.455a.636.636,0,0,0,0-1.273ZM10.818,21.136H.636a.636.636,0,1,0,0,1.273H10.818a.636.636,0,1,0,0-1.273Z" transform="translate(0 -8.409)"/></g></g></svg>