<svg width="150" height="104" viewBox="0 0 150 104" fill="none" xmlns="http://www.w3.org/2000/svg">
<path d="M147.731 46.707L103.084 2.15556C102.441 1.48419 101.671 0.947673 100.818 0.577572C99.9655 0.207472 99.0471 0.0112498 98.1171 0.000424133C97.1871 -0.0104016 96.2643 0.164408 95.403 0.514554C94.5417 0.8647 93.7592 1.38313 93.1016 2.03937C92.4439 2.6956 91.9244 3.47638 91.5735 4.33585C91.2226 5.19532 91.0474 6.11612 91.0582 7.04412C91.0691 7.97211 91.2657 8.8886 91.6366 9.73967C92.0075 10.5907 92.5452 11.3592 93.218 12L125.947 44.659L6.75378 44.6591C4.94286 44.7171 3.22559 45.4758 1.96516 46.7746C0.704733 48.0734 -4.81054e-06 49.8105 -4.49443e-06 51.6184C-4.17832e-06 53.4264 0.704733 55.1635 1.96516 56.4622C3.22559 57.761 4.94287 58.5197 6.75378 58.5778L125.962 58.5777L93.2324 91.2584C91.9741 92.5739 91.2816 94.3285 91.3029 96.147C91.3241 97.9654 92.0575 99.7034 93.3462 100.989C94.6349 102.275 96.3766 103.007 98.1989 103.028C100.021 103.049 101.78 102.358 103.098 101.103L147.745 56.5514C149.051 55.2438 149.783 53.4722 149.78 51.6262C149.778 49.7802 149.04 48.0108 147.731 46.707Z" fill="black"/>
</svg>
